<svg width="24" height="25" viewBox="0 0 24 25" fill="none" xmlns="http://www.w3.org/2000/svg">
<path d="M7.5 9V8.5C7.5 8.036 7.5 7.803 7.52 7.608C7.61061 6.68708 8.01771 5.82606 8.67196 5.17164C9.3262 4.51721 10.1871 4.10987 11.108 4.019C11.303 4 11.536 4 12 4C12.464 4 12.697 4 12.892 4.02C13.8129 4.11061 14.6739 4.51771 15.3284 5.17196C15.9828 5.8262 16.3901 6.6871 16.481 7.608C16.5 7.803 16.5 8.036 16.5 8.5V9M15.5 14V12M8.5 14V12" stroke="#C6AE70" stroke-linecap="round"/>
<path d="M5.5 12.6C5.5 10.903 5.5 10.054 6.027 9.527C6.554 9 7.403 9 9.1 9H14.9C16.597 9 17.446 9 17.973 9.527C18.5 10.054 18.5 10.903 18.5 12.6V15C18.5 17.828 18.5 19.243 17.621 20.121C16.743 21 15.328 21 12.5 21H11.5C8.672 21 7.257 21 6.379 20.121C5.5 19.243 5.5 17.828 5.5 15V12.6Z" stroke="#C6AE70"/>
</svg>
