<svg width="25" height="25" viewBox="0 0 25 25" fill="none" xmlns="http://www.w3.org/2000/svg">
<path d="M4.41732 12.7598C4.00545 12.3506 3.67913 11.8636 3.45737 11.3271C3.23561 10.7906 3.12285 10.2153 3.12565 9.63478C3.12565 8.46065 3.59207 7.3346 4.42231 6.50436C5.25255 5.67412 6.3786 5.2077 7.55273 5.2077C9.19857 5.2077 10.6361 6.10353 11.3965 7.43687H12.5632C12.9497 6.7588 13.5091 6.19529 14.1843 5.80372C14.8595 5.41214 15.6264 5.20649 16.4069 5.2077C17.581 5.2077 18.7071 5.67412 19.5373 6.50436C20.3676 7.3346 20.834 8.46065 20.834 9.63478C20.834 10.8535 20.3132 11.9785 19.5423 12.7598L11.9798 20.3119L4.41732 12.7598ZM20.2715 13.4994C21.2611 12.4994 21.8757 11.1452 21.8757 9.63478C21.8757 8.18438 21.2995 6.79338 20.2739 5.76779C19.2483 4.7422 17.8573 4.16603 16.4069 4.16603C14.584 4.16603 12.9694 5.05145 11.9798 6.42645C11.4747 5.72489 10.8096 5.15387 10.0397 4.76075C9.26977 4.36764 8.41721 4.16376 7.55273 4.16603C6.10233 4.16603 4.71133 4.7422 3.68574 5.76779C2.66015 6.79338 2.08398 8.18438 2.08398 9.63478C2.08398 11.1452 2.69857 12.4994 3.68815 13.4994L11.9798 21.791L20.2715 13.4994Z" fill="#C6AE70"/>
</svg>
