<svg width="25" height="25" viewBox="0 0 25 25" fill="none" xmlns="http://www.w3.org/2000/svg">
<path d="M20.297 20.9935L13.7741 14.4706C13.2533 14.9143 12.6543 15.2577 11.9772 15.5008C11.3001 15.7438 10.6196 15.8654 9.93555 15.8654C8.26749 15.8654 6.85569 15.2879 5.70013 14.1331C4.54457 12.9782 3.9668 11.5668 3.9668 9.8987C3.9668 8.23064 4.54388 6.81849 5.69805 5.66224C6.85221 4.50599 8.26332 3.92717 9.93138 3.92578C11.5994 3.92439 13.0119 4.50217 14.1689 5.65912C15.3258 6.81606 15.9043 8.22821 15.9043 9.89558C15.9043 10.6192 15.7762 11.3195 15.5199 11.9966C15.2637 12.6737 14.9269 13.2529 14.5095 13.7341L21.0324 20.256L20.297 20.9935ZM9.93659 14.8227C11.3185 14.8227 12.4852 14.347 13.4366 13.3956C14.388 12.4442 14.8637 11.2772 14.8637 9.89453C14.8637 8.51189 14.388 7.34523 13.4366 6.39453C12.4852 5.44384 11.3185 4.96814 9.93659 4.96745C8.55464 4.96676 7.38763 5.44245 6.43555 6.39453C5.48346 7.34662 5.00777 8.51328 5.00846 9.89453C5.00916 11.2758 5.48485 12.4425 6.43555 13.3945C7.38624 14.3466 8.55291 14.8223 9.93555 14.8216" fill="#C6AE70"/>
</svg>
