<svg width="25" height="25" viewBox="0 0 25 25" fill="none" xmlns="http://www.w3.org/2000/svg">
<path d="M22.3825 20.8008C20.8385 18.1329 18.4147 16.2608 15.5983 15.4669C16.9676 14.7708 18.0625 13.6339 18.7066 12.2394C19.3507 10.8449 19.5063 9.27416 19.1485 7.78039C18.7906 6.28662 17.9401 4.95691 16.734 4.00568C15.5279 3.05444 14.0367 2.53711 12.5006 2.53711C10.9646 2.53711 9.47332 3.05444 8.26727 4.00568C7.06122 4.95691 6.21069 6.28662 5.85282 7.78039C5.49495 9.27416 5.6506 10.8449 6.29467 12.2394C6.93874 13.6339 8.0337 14.7708 9.40298 15.4669C6.58657 16.2598 4.16274 18.1319 2.6188 20.8008C2.5764 20.8675 2.54794 20.9421 2.53511 21.0201C2.52229 21.0981 2.52537 21.1778 2.54417 21.2546C2.56297 21.3313 2.5971 21.4035 2.64451 21.4667C2.69192 21.5299 2.75164 21.5829 2.82005 21.6225C2.88847 21.662 2.96418 21.6873 3.04263 21.6968C3.12108 21.7064 3.20064 21.6999 3.27654 21.6779C3.35243 21.6559 3.42309 21.6188 3.48426 21.5687C3.54543 21.5187 3.59584 21.4568 3.63247 21.3868C5.50845 18.1456 8.8229 16.211 12.5006 16.211C16.1784 16.211 19.4928 18.1456 21.3688 21.3868C21.4054 21.4568 21.4558 21.5187 21.517 21.5687C21.5782 21.6188 21.6488 21.6559 21.7247 21.6779C21.8006 21.6999 21.8802 21.7064 21.9586 21.6968C22.0371 21.6873 22.1128 21.662 22.1812 21.6225C22.2496 21.5829 22.3093 21.5299 22.3568 21.4667C22.4042 21.4035 22.4383 21.3313 22.4571 21.2546C22.4759 21.1778 22.479 21.0981 22.4662 21.0201C22.4533 20.9421 22.4249 20.8675 22.3825 20.8008ZM6.83657 9.37506C6.83657 8.25482 7.16876 7.15973 7.79114 6.22828C8.41352 5.29683 9.29812 4.57085 10.3331 4.14215C11.3681 3.71345 12.5069 3.60129 13.6056 3.81983C14.7044 4.03838 15.7136 4.57783 16.5057 5.36997C17.2979 6.1621 17.8373 7.17134 18.0559 8.27006C18.2744 9.36878 18.1622 10.5076 17.7335 11.5426C17.3048 12.5776 16.5789 13.4622 15.6474 14.0846C14.716 14.7069 13.6209 15.0391 12.5006 15.0391C10.999 15.0373 9.55936 14.44 8.49754 13.3782C7.43571 12.3163 6.83838 10.8767 6.83657 9.37506Z" fill="#C6AE70"/>
</svg>
